# xmcd
#
# Track frame offsets:
#	182
#	16877
#	33410
#
# Disc length: 700 seconds
# Revision: 0
# Processed by: cddbd v1.5.2PL0 Copyright (c) Steve Scherf et al.
# Submitted via: dBpowerAMP V12.0
#
DISCID=1802ba03
DTITLE=Betty Boo - Thing Goin' On
DYEAR=1992
DGENRE=Hip-Hop
TTITLE0=Thing Goin’ On [Album Version]
TTITLE1=Thing Goin’ On [Radio Remix]
TTITLE2=Thing Goin’ On [Hip Hop 12”]
EXTD=
EXTT0=
EXTT1=
EXTT2=
PLAYORDER=
